<svg xmlns="http://www.w3.org/2000/svg" width="1745" height="370" viewBox="0 0 1745 370" fill="none"><g clip-path="url(#clip0_156445_123522)"><path d="M0 0V369.84H305.86V0H0ZM39.62 330.9V204.76L266.25 330.9H39.62ZM266.25 284.83L80.13 184.55L266.25 85.56V284.82V284.83ZM39.62 165.11V39.62H266.25L39.62 165.11Z" fill="#EF3837"></path><path d="M562.49 330.89L486.78 210.38L452.02 249.88V330.89H389.83V43.9297H452.02V171.7L558.63 43.9297H630.86L527.34 162.43L634.72 330.9H562.49V330.89Z" fill="#EF3837"></path><path d="M637.03 272.051C637.03 239.811 654.8 213.611 705.78 209.181L748.27 205.551C764.88 203.941 769.51 198.701 769.51 189.831C769.51 172.101 759.08 162.021 739 162.021C718.92 162.021 708.49 171.291 706.55 189.831H647.84C647.84 146.701 674.11 118.891 738.23 118.891C802.35 118.891 828.62 146.701 828.62 189.831V277.691C828.62 305.901 830.94 324.041 834.8 330.891H781.11C775.7 323.641 772.61 315.571 772.61 301.871C761.41 323.631 742.87 334.921 709.65 334.921C662.14 334.921 637.03 310.341 637.03 272.041V272.051ZM769.52 247.061V235.371C766.82 238.591 759.09 240.611 748.28 241.821L726.65 243.431C704.63 245.451 696.14 254.721 696.14 267.611C696.14 283.331 705.41 293.811 727.04 293.811C754.08 293.811 769.53 272.451 769.53 247.061H769.52Z" fill="#EF3837"></path><path d="M857.97 330.89V43.9297H917.07V330.89H857.97Z" fill="#EF3837"></path><path d="M1002.43 330.89L930.97 122.92H992.39L1038.35 277.69L1084.32 122.92H1145.74L1074.28 330.89H1002.44H1002.43Z" fill="#EF3837"></path><path d="M1155.77 65.6902C1155.77 47.9602 1167.74 34.6602 1188.99 34.6602C1210.24 34.6602 1222.59 47.9602 1222.59 65.6902C1222.59 83.4202 1210.62 96.7202 1188.99 96.7202C1167.36 96.7202 1155.77 83.4202 1155.77 65.6902ZM1159.63 330.89V122.92H1218.73V330.89H1159.63Z" fill="#EF3837"></path><path d="M1248.08 260.36V122.92H1307.18V248.27C1307.18 272.45 1315.68 285.35 1335.76 285.35C1358.16 285.35 1372.84 268.83 1372.84 239V122.92H1431.94V330.89H1375.93V299.45C1365.5 319.6 1348.51 334.92 1316.83 334.92C1271.25 334.92 1248.08 310.74 1248.08 260.36Z" fill="#EF3837"></path><path d="M1687.64 330.891V203.931C1687.64 179.341 1679.53 168.461 1663.69 168.461C1645.92 168.461 1630.86 183.371 1630.86 212.791V330.881H1574.47V203.921C1574.47 179.331 1565.97 168.451 1550.52 168.451C1532.37 168.451 1517.69 183.361 1517.69 212.781V330.871H1461.3V122.921H1517.31V154.361C1527.35 134.211 1542.8 118.891 1569.84 118.891C1598.42 118.891 1616.96 130.581 1625.85 155.161C1635.89 133.801 1654.82 118.891 1681.86 118.891C1723.19 118.891 1744.43 143.071 1744.43 193.451V330.891H1687.65H1687.64Z" fill="#EF3837"></path></g><defs><clipPath id="clip0_156445_123522"><rect width="1745" height="370" fill="white"></rect></clipPath></defs></svg>